<svg xmlns="http://www.w3.org/2000/svg" width="234.324" height="127" viewBox="0 0 234.324 127">
  <g id="Group_1138" data-name="Group 1138" transform="translate(293 -8035)">
    <circle id="Ellipse_1_copy" data-name="Ellipse 1 copy" cx="5.719" cy="5.719" r="5.719" transform="translate(-293 8093.141)" fill="#fff"/>
    <circle id="Ellipse_1_copy-2" data-name="Ellipse 1 copy" cx="5.719" cy="5.719" r="5.719" transform="translate(-293 8071.141)" fill="#fff"/>
    <circle id="Ellipse_1_copy-3" data-name="Ellipse 1 copy" cx="5.719" cy="5.719" r="5.719" transform="translate(-293 8115.141)" fill="#fff"/>
    <g id="Group_1137" data-name="Group 1137" transform="translate(-661.053 7770.986)">
      <path id="Path_302" data-name="Path 302" d="M454.791,299.275a28.887,28.887,0,0,1-4.444-.244,2.663,2.663,0,0,1-.652-.17h0a2.74,2.74,0,0,1-.321-.486q-1.842-3.378-3.667-6.777c-2.716-4.932-3.418-5.9-3.725-6.2l-.3-.289-.392.142c-2.7.977-3.178,1.44-3.178,2.051,0,1.286.051,3.225.152,5.764s.151,4.468.151,5.737a.416.416,0,0,1-.032.2h0a.748.748,0,0,1-.079.017,36.744,36.744,0,0,1-4.664.2,29.061,29.061,0,0,1-4.231-.19.41.41,0,0,1-.186-.072c0-1.844.087-4.611.263-8.278s.267-6.46.267-8.316c0-1.969-.085-4.95-.254-8.857-.163-3.806-.248-6.726-.252-8.682q.791.005,2.194.073c1.06.051,1.868.077,2.4.077.551,0,1.372-.026,2.438-.077.895-.043,1.6-.067,2.106-.073-.007,1.238-.069,3.007-.188,5.409-.126,2.529-.191,4.445-.191,5.7,0,2.481,1.168,2.852,1.863,2.852a7.064,7.064,0,0,0,5.159-1.84,13.691,13.691,0,0,0,2.662-4.666c.546-1.653,1.436-4.08,2.661-7.25.024-.053.089-.2.512-.2s1.08.026,1.95.075c.894.052,1.576.077,2.027.077s1.15-.017,2.064-.051q1.264-.046,1.916-.05a20.444,20.444,0,0,1-1.023,3.778c-2.031,6.193-4.359,10.09-6.919,11.586-.577.332-1.169.755-1.169,1.366v.678l.3,0c.5.811,2,3.249,4.467,7.275,4.129,6.734,4.575,8.339,4.575,8.717,0,.509-.2.681-.487.784A16.6,16.6,0,0,1,454.791,299.275Z" transform="translate(-1.038 -0.266)" fill="#fff"/>
      <path id="Path_303" data-name="Path 303" d="M499.6,298.958a24.409,24.409,0,0,1-3.752-.191c-.168-.03-.287-.052-.287-.428,0-1.411.025-3.552.076-6.549s.077-5.141.077-6.573c0-2.345-1.31-3.637-3.688-3.637a5.449,5.449,0,0,0-2.724.9c-1.21.718-1.824,1.535-1.824,2.428v6.257q0,1.22.05,3.674.051,2.437.052,3.647c0,.346-.075.356-.2.372-.34.043-1.369.095-4.321.095a14.955,14.955,0,0,1-2.843-.186c-.385-.085-.385-.19-.385-.229q0-2,.025-6.013t.025-6.02c0-5.5-.06-10.115-.177-13.727q-.076-1.9-.126-3.8a26.806,26.806,0,0,0-.47-3.894c-.025-.106-.04-.183-.048-.236a10.306,10.306,0,0,1,2.021-.221c1.838-.069,2.268-.108,2.436-.134l4.213-.488c-.007.5-.039,1.164-.1,1.979-.071,1.115-.1,1.85-.1,2.252-.1,3.866-.151,6.83-.151,9.043,0,1.123.772,1.18.926,1.18.255,0,.264,0,1.683-1.012a16.616,16.616,0,0,1,2.7-1.582,8.914,8.914,0,0,1,3.6-.827,7.936,7.936,0,0,1,5.007,1.555,5.284,5.284,0,0,1,2.1,4.459l-.051,17.477a.561.561,0,0,1-.052.3.219.219,0,0,1-.081.023C502.863,298.906,501.948,298.958,499.6,298.958Z" transform="translate(-17.35)" fill="#fff"/>
      <path id="Path_304" data-name="Path 304" d="M532.353,304.657A9.468,9.468,0,0,1,524.689,301a12.509,12.509,0,0,1-2.91-8.284,13.089,13.089,0,0,1,3-8.977,10.865,10.865,0,0,1,8.515-3.472,7.02,7.02,0,0,1,5.764,2.543.881.881,0,0,0,.695.371c.7,0,.948-.791,1.174-1.747a3.331,3.331,0,0,1,.229-.7,25.17,25.17,0,0,1,3.251.513c1.554.314,2.7.585,3.409.806-.009.061-.023.133-.037.215a56.6,56.6,0,0,0-.821,9.82c0,1.3.077,3.269.229,5.84.151,2.542.227,4.472.227,5.736,0,.4-.1.4-.272.419-2.011.146-4.347.221-6.94.225a3.612,3.612,0,0,1-.176-.86c-.131-1.164-.279-2-.984-2.075l-.2-.021-.177.087a2.846,2.846,0,0,0-.709.558A7.784,7.784,0,0,1,532.353,304.657Zm2.229-18.061a5.334,5.334,0,0,0-4.005,1.6,5.915,5.915,0,0,0,.077,8.027,5.273,5.273,0,0,0,3.928,1.675,5.368,5.368,0,0,0,4-1.61,6.039,6.039,0,0,0,.015-8.079A5.355,5.355,0,0,0,534.582,286.6Z" transform="translate(-31.332 -5.319)" fill="#fff"/>
      <path id="Path_305" data-name="Path 305" d="M453.405,416.094c0,.522.491.849.994,1.14a6.214,6.214,0,0,1,2.511,2.915,9.282,9.282,0,0,1,.851,3.923,10.167,10.167,0,0,1-2.728,7.263c-2.073,2.2-5.828,3.311-11.165,3.311q-.629,0-1.809-.026h-1.813c-6.155,0-9.85-.122-10.98-.365a.453.453,0,0,1-.2-.074c0-1.847.1-4.6.313-8.222.211-3.656.318-6.439.318-8.271,0-1.975-.1-5.7-.3-11.07q-.075-2.079-.279-6.24l-.015-.2a1.651,1.651,0,0,1,.2-.037c.358-.043,1.654-.095,5.781-.095,5.341,0,8.512.016,9.424.049,4.017.147,7,.8,8.871,1.929,2.423,1.486,3.6,3.958,3.6,7.557a6.014,6.014,0,0,1-.83,2.845,12.55,12.55,0,0,1-1.633,2.254c-.637.706-.788.846-.819.872A1.411,1.411,0,0,0,453.405,416.094ZM442.451,419.7c-3.517,0-3.755.2-3.985.4-.3.261-.513.671-.513,3.614,0,3.03.244,3.509.538,3.791s.793.5,4.112.5a12.315,12.315,0,0,0,4.093-.477,3.53,3.53,0,0,0,2.278-3.566,3.729,3.729,0,0,0-2.308-3.709A11.6,11.6,0,0,0,442.451,419.7Zm-1.089-13.832c-2.31,0-3.409.161-3.409,1.078,0,.3-.029.772-.087,1.4-.059.659-.089,1.169-.089,1.518,0,2.4.274,3.077.716,3.388.18.149.426.35,3.6.35,5.057,0,6.119-2.06,6.119-3.787a3.487,3.487,0,0,0-2.644-3.529A15.254,15.254,0,0,0,441.361,405.87Z" transform="translate(-0.986 -44.525)" fill="#fff"/>
      <path id="Path_306" data-name="Path 306" d="M489.939,440.028a9.469,9.469,0,0,1-7.664-3.658,12.511,12.511,0,0,1-2.91-8.284,13.093,13.093,0,0,1,3-8.977,10.726,10.726,0,0,1,8.515-3.472,7.02,7.02,0,0,1,5.764,2.543.883.883,0,0,0,.7.371c.7,0,.947-.791,1.173-1.746a3.353,3.353,0,0,1,.231-.707,25.891,25.891,0,0,1,3.251.514c1.557.315,2.7.587,3.409.806-.009.061-.022.133-.037.216a56.608,56.608,0,0,0-.821,9.819c0,1.308.077,3.273.23,5.842.15,2.545.227,4.474.227,5.735,0,.4-.1.4-.271.419-2.017.146-4.354.222-6.94.226a3.6,3.6,0,0,1-.176-.86c-.131-1.164-.279-1.995-.984-2.074l-.2-.022-.176.087a2.841,2.841,0,0,0-.71.558A7.786,7.786,0,0,1,489.939,440.028Zm2.229-18.062a5.333,5.333,0,0,0-4.005,1.6,5.915,5.915,0,0,0,.077,8.027,5.277,5.277,0,0,0,3.928,1.674,5.369,5.369,0,0,0,4-1.61,6.036,6.036,0,0,0,.015-8.078A5.357,5.357,0,0,0,492.168,421.966Z" transform="translate(-17.449 -49.628)" fill="#fff"/>
      <path id="Path_307" data-name="Path 307" d="M536.515,439.87a11.644,11.644,0,0,1-8.712-3.544,13.167,13.167,0,0,1,.014-17.75,11.592,11.592,0,0,1,8.7-3.579,12.627,12.627,0,0,1,6.3,1.533,1.858,1.858,0,0,1,.3.194c-.043.227-.2.885-.718,2.709-.579,2.086-.81,2.8-.9,3.026-.006.013-.011.026-.016.038l-1.161-.311a10.457,10.457,0,0,0-2.619-.429,5.5,5.5,0,0,0-4.075,1.556,5.57,5.57,0,0,0-1.536,4.083,5.352,5.352,0,0,0,1.69,4.159,6.156,6.156,0,0,0,4.276,1.5,7.432,7.432,0,0,0,2.762-.62c.346-.142.627-.257.855-.356a17.964,17.964,0,0,1,.664,2.519,25.376,25.376,0,0,1,.569,3.76h0c-.008,0-.275.482-2.612.992A18.846,18.846,0,0,1,536.515,439.87Z" transform="translate(-32.18 -49.418)" fill="#fff"/>
      <path id="Path_308" data-name="Path 308" d="M580.48,434.329a24.362,24.362,0,0,1-3.753-.192c-.168-.03-.287-.052-.287-.428,0-1.423.025-3.566.077-6.549.051-3,.076-5.154.076-6.573,0-2.344-1.309-3.636-3.687-3.636a5.437,5.437,0,0,0-2.725.9c-1.21.718-1.824,1.535-1.824,2.428v6.256q0,1.221.05,3.675.052,2.435.052,3.647c0,.345-.075.355-.2.371-.342.044-1.371.1-4.321.1a14.927,14.927,0,0,1-2.843-.188c-.385-.085-.385-.19-.385-.23q0-2,.026-6.012t.025-6.021c0-5.5-.06-10.115-.178-13.726q-.076-1.9-.126-3.8a26.838,26.838,0,0,0-.47-3.894c-.024-.106-.04-.183-.049-.236a10.235,10.235,0,0,1,2.022-.221c1.849-.069,2.276-.11,2.436-.135l4.21-.488c-.005.54-.038,1.189-.095,1.979-.071,1.141-.1,1.855-.1,2.252-.1,3.865-.151,6.828-.151,9.043,0,1.122.772,1.179.926,1.179.253,0,.268,0,1.683-1.011a16.6,16.6,0,0,1,2.7-1.581,8.918,8.918,0,0,1,3.6-.826,7.932,7.932,0,0,1,5.007,1.556,5.283,5.283,0,0,1,2.1,4.459l-.051,17.476a.554.554,0,0,1-.053.3.194.194,0,0,1-.08.023C583.739,434.277,582.823,434.329,580.48,434.329Z" transform="translate(-43.821 -44.308)" fill="#fff"/>
      <path id="Path_309" data-name="Path 309" d="M614.753,440.028a9.472,9.472,0,0,1-7.665-3.659,12.511,12.511,0,0,1-2.909-8.284,13.088,13.088,0,0,1,3-8.977,10.861,10.861,0,0,1,8.514-3.472,7.019,7.019,0,0,1,5.764,2.543.884.884,0,0,0,.7.371c.7,0,.947-.791,1.173-1.746a3.322,3.322,0,0,1,.23-.707,25.89,25.89,0,0,1,3.251.514c1.559.316,2.7.587,3.409.806-.01.061-.022.133-.038.216a56.68,56.68,0,0,0-.821,9.819c0,1.314.075,3.225.23,5.841.151,2.545.227,4.475.227,5.735,0,.4-.1.4-.27.419-2.017.146-4.354.222-6.94.226a3.61,3.61,0,0,1-.176-.86c-.132-1.164-.279-1.995-.984-2.074l-.2-.022-.177.087a2.853,2.853,0,0,0-.71.558A7.885,7.885,0,0,1,614.753,440.028Zm2.23-18.062a5.331,5.331,0,0,0-4.006,1.6,5.914,5.914,0,0,0,.077,8.027,5.28,5.28,0,0,0,3.929,1.674,5.368,5.368,0,0,0,4-1.61,6.037,6.037,0,0,0,.015-8.079A5.356,5.356,0,0,0,616.983,421.966Z" transform="translate(-58.302 -49.628)" fill="#fff"/>
      <path id="Path_310" data-name="Path 310" d="M455.575,367.143a29.783,29.783,0,0,1-4.533-.191c-.222-.046-.449-.155-.562-.635-.862-3.648-1.272-4.124-1.684-4.342-.271-.119-.58-.254-7.1-.254-4.545,0-4.771.185-5.011.38-.321.3-.682.873-1.192,3.08-.359,1.569-.688,1.779-.7,1.788a41.742,41.742,0,0,1-5.583.174,11.378,11.378,0,0,1-3.153-.263c.231-.814,1.349-4.132,5.634-15.754,4.183-11.323,6.391-17.373,6.748-18.495a2.18,2.18,0,0,1,.206-.492c.438.007,1.082.048,1.917.122.968.086,1.708.13,2.2.13.472,0,1.165-.031,2.059-.091s1.522-.087,1.937-.087a2.163,2.163,0,0,1,.289.457c.815,1.748,3.246,7.87,7.222,18.186,4.734,12.316,5.8,15.4,5.963,16.066a.909.909,0,0,1-.12.042A26.894,26.894,0,0,1,455.575,367.143Zm-13.221-23.531c-.369.772-.967,2.378-1.829,4.912-1.236,3.577-1.4,4.461-1.4,4.853,0,1.107,1.577,1.159,2.171,1.178.521.035,1.38.052,2.605.052,1.5,0,2.214-.234,2.465-.809a1.626,1.626,0,0,0,.107-.624c0-.4-.124-1.339-1.2-4.808a35.822,35.822,0,0,0-1.718-4.775l-.623-1.191Z" transform="translate(0 -22.298)" fill="#fff"/>
      <path id="Path_311" data-name="Path 311" d="M498.276,369.638c.523.168.681.737.79,1.734l.148,1.467c.012.038.025.058.036.062a32.026,32.026,0,0,0,3.758.145,18.841,18.841,0,0,0,3.9-.229c.112-.032.142-.04.142-.213,0-1.191-.042-2.965-.126-5.423-.085-2.422-.127-4.271-.127-5.5,0-1.25.059-3.153.177-5.656.118-2.472.178-4.352.178-5.591,0-.134,0-.231-.009-.3a1.468,1.468,0,0,0-.255-.019q-1.243,0-3.743-.026t-3.73-.025a2.325,2.325,0,0,0-.344.021,5.282,5.282,0,0,0-.022.548c0,7.934-.017,12.105-.051,12.748a3.509,3.509,0,0,1-1.621,2.556,4.768,4.768,0,0,1-2.825,1.125,3.661,3.661,0,0,1-3.981-3.345,42.4,42.4,0,0,1-.289-6.144,46.586,46.586,0,0,1,.539-7.085,3.341,3.341,0,0,0,.04-.417.892.892,0,0,0-.11-.006q-1.166,0-3.553-.025t-3.54-.026c-.067,0-.243,0-.389.548a34.639,34.639,0,0,0-.912,8.937,44.512,44.512,0,0,0,.543,8.023c.76,3.711,3.146,5.515,7.295,5.515a10.023,10.023,0,0,0,4.952-1.629,20.662,20.662,0,0,0,2.416-1.53A1.258,1.258,0,0,1,498.276,369.638Z" transform="translate(-18.427 -28.152)" fill="#fff"/>
      <path id="Path_312" data-name="Path 312" d="M535.387,352.256a15.762,15.762,0,0,1,1.939-1.143,9.162,9.162,0,0,1,4.362-1.247,2.6,2.6,0,0,1,.745.078c-.009.455-.059,1.079-.147,1.858-.1,1.006-.164,1.7-.18,2.127,0,.519.007,1.175.024,1.991.034.994.052,1.645.052,1.962,0,.223,0,.314-.418.314-.31,0-.768-.02-1.359-.061-.62-.043-1.1-.065-1.426-.065a5.053,5.053,0,0,0-3.3.821,4.034,4.034,0,0,0-.992,3.169q0,1.094.038,3.317t.038,3.295c0,.5.033,1.236.1,2.237.066.934.1,1.637.1,2.09a.914.914,0,0,1-.225.043c-.788.065-2.022.1-3.662.1-1.579,0-2.851-.05-3.779-.148a.454.454,0,0,1-.222-.065.319.319,0,0,1-.012-.1q0-2.025.025-6.063t.025-6.071A37.613,37.613,0,0,0,526,350.708c0-.022-.008-.042-.011-.061.933-.108,2.235-.287,3.873-.534q2.98-.583,3.8-.733a4.951,4.951,0,0,1,.141.93c.1,1.3.295,2.073.977,2.2A3.251,3.251,0,0,0,535.387,352.256Z" transform="translate(-32.709 -27.941)" fill="#fff"/>
      <g id="Group_1136" data-name="Group 1136" transform="translate(521.844 274.843)">
        <path id="Path_313" data-name="Path 313" d="M577.622,304.249l.334-6.482s-.632-.21-.768-.275c-1.339-.59-2.312-2.328-2.312-4.582,0-2.455,1.905-4.574,3.751-4.594h.008c1.843.02,3.751,2.138,3.751,4.594,0,2.254-.973,3.992-2.312,4.582-.011,0-.776.283-.776.283l.377,7.209a10.5,10.5,0,0,0,5.969-.242l.334-6.424a3.447,3.447,0,0,1-2.09-1.451c-.583-.865.446-8.551.446-8.551H585v7.213h.663v-7.213h.721v7.213h.663v-7.213h.749v7.213h.663v-7.213h.513S590,296,589.42,296.87a3.472,3.472,0,0,1-2.068,1.443.135.135,0,0,0-.027.011l.287,5.525a10.725,10.725,0,1,0-9.99.4Z" transform="translate(-569.454 -281.339)" fill="#fff"/>
        <path id="Path_314" data-name="Path 314" d="M578.425,295.463c.038-.16.092-.307.092-.311a.14.14,0,0,0-.077-.155.129.129,0,0,0-.167.034s-.073.116-.182.291a2.993,2.993,0,0,0-.3.682,5.526,5.526,0,0,0-.209.99c-.016.2-.019.384-.016.57a2.769,2.769,0,0,0,.113.609,3.907,3.907,0,0,0,.959,1.75,2.99,2.99,0,0,0,.512.415l.046.035.085.055a1.075,1.075,0,0,0,.209.084.123.123,0,0,0,.141-.057.126.126,0,0,0-.043-.151,1.378,1.378,0,0,1-.152-.167,3.257,3.257,0,0,1-.2-.268c-.05-.077-.112-.163-.171-.248a8.593,8.593,0,0,1-.674-1.665,2.185,2.185,0,0,1-.1-.457c-.015-.171-.028-.338-.028-.489a7.251,7.251,0,0,1,.042-.911A3.587,3.587,0,0,1,578.425,295.463Z" transform="translate(-571.435 -284.979)" fill="#fff"/>
        <path id="Path_315" data-name="Path 315" d="M584.577,280.948a.668.668,0,0,0-.1-.038l-.017,0c-.039-.022-.109-.067-.231-.148a.873.873,0,0,0-.3-.219.5.5,0,0,0-.26-.058c-.018,0-.033.01-.05.011a10.393,10.393,0,0,0-3.569-.375c-17.086,1.661-14.615,28.226,2.956,25.9C597.235,303.808,597.871,284.953,584.577,280.948Zm-3.343.643c.352,0,.7.022,1.045.052.017.015.028.03.047.044.494.1.967.223,1.427.361a1.365,1.365,0,0,0,.513.173c12.464,4.219,11.411,21.944-3.548,22.648-10.306-.243-13.932-12.322-8.24-19.342A11.73,11.73,0,0,1,581.234,281.591Z" transform="translate(-568.452 -280.112)" fill="#fff"/>
      </g>
      <path id="Path_316" data-name="Path 316" d="M666.125,414.919a.754.754,0,0,0-.1-.038l-.017,0c-.039-.022-.109-.067-.231-.148a.869.869,0,0,0-.3-.219.513.513,0,0,0-.26-.058c-.018,0-.033.011-.05.011a10.39,10.39,0,0,0-3.569-.375c-17.086,1.661-14.615,28.226,2.956,25.9C678.783,437.78,679.419,418.925,666.125,414.919Zm-3.86,23.922c-10.307-.242-13.933-12.322-8.24-19.341a11.731,11.731,0,0,1,8.758-3.937c.352,0,.7.023,1.045.053.017.014.028.029.046.043.494.1.967.224,1.427.362a1.369,1.369,0,0,0,.512.173C678.277,420.413,677.224,438.137,662.265,438.841Z" transform="translate(-73.3 -49.119)" fill="#fff"/>
      <path id="Path_317" data-name="Path 317" d="M663.784,417.834a10.723,10.723,0,0,0-10.723,10.723c0,.338.021.672.052,1,.007.075.016.149.025.223q.046.406.122.8c.012.064.022.128.036.192.065.309.143.615.235.914.022.073.049.145.073.217.073.22.151.437.238.65.044.109.089.217.137.325.08.181.167.358.257.533s.192.361.295.537c.085.146.171.292.263.433s.2.3.311.447c.057.077.113.153.172.229a10.693,10.693,0,0,0,6.995,4.1c.079.011.157.026.237.036.127.015.255.028.384.038.293.026.587.045.887.045h.005c.334,0,.663-.019.988-.05.136-.013.269-.034.4-.051.177-.024.354-.048.528-.08s.353-.07.527-.111c.111-.026.221-.055.33-.085.21-.056.418-.115.622-.184l.01,0h0a10.665,10.665,0,0,0,1.967-.893v0c.048-.028.094-.06.142-.088q.425-.256.823-.55c.087-.064.174-.127.259-.194.131-.1.26-.207.386-.316s.232-.208.346-.314c.147-.139.291-.28.43-.426s.258-.275.38-.418c.076-.089.151-.178.224-.27.174-.216.341-.436.5-.665.021-.032.041-.064.063-.1.157-.236.3-.48.443-.729.032-.057.063-.114.094-.172a10.617,10.617,0,0,0,.757-1.8l.025-.081a10.621,10.621,0,0,0,.414-2.034l0-.038a10.669,10.669,0,0,0-10.663-11.8Zm-4.91,8.57c-.042-.033-.086-.06-.128-.1a1.081,1.081,0,0,1-.088-.113,1.723,1.723,0,0,1-.213-.095.956.956,0,0,1-.354-.325.627.627,0,0,1-.162-.278.956.956,0,0,1-.109-.486l.045-.336a1.62,1.62,0,0,1,.407-.672,1.555,1.555,0,0,1,.254-.192,1.728,1.728,0,0,1,.392-.333,2.316,2.316,0,0,1,1.065-.307,1.287,1.287,0,0,1,.687.165,2.456,2.456,0,0,1,.387.15,1.272,1.272,0,0,1,.452.453,1.251,1.251,0,0,1,.172.636,1.463,1.463,0,0,1-.3.851.957.957,0,0,1-.038.33l-.127.3a1.408,1.408,0,0,1-.754.579c-.093.017-.188.032-.283.044l-.016,0a.779.779,0,0,1-.083.034,1.3,1.3,0,0,1-.972-.127A.975.975,0,0,1,658.874,426.4Zm5.821,2.613c-.529.725-1.075,1.436-1.616,2.152a8.433,8.433,0,0,0-.687,1.018,3.709,3.709,0,0,1-.221.342.185.185,0,0,1-.013.067,1.738,1.738,0,0,1-.178.381,1.287,1.287,0,0,1-1.725.453,1.273,1.273,0,0,1-.452-1.726c-.167.266,0-.028.03-.108a2.333,2.333,0,0,1,.274-.463,1.9,1.9,0,0,1,.139-.278,8.87,8.87,0,0,1,.7-1.02c.527-.694,1.056-1.385,1.569-2.089.529-.726,1.084-1.433,1.6-2.169.254-.364.486-.741.73-1.111.1-.147.2-.293.3-.435.085-.114.34-.431.379-.486a1.3,1.3,0,0,1,1.726-.452,1.266,1.266,0,0,1,.452,1.725c-.1.147-.216.291-.33.431-.012.015-.095.122-.114.143-.1.135-.191.272-.283.412-.243.371-.476.747-.731,1.109C665.745,427.624,665.208,428.313,664.7,429.017Zm4.9,2.2c0,.045-.014.089-.02.135a1.6,1.6,0,0,1-.792,1.338l.255-.2a2.9,2.9,0,0,1-.526.391,3.74,3.74,0,0,1-.443.194,1.09,1.09,0,0,1-.158.048c-.081.018-.164.026-.245.036s-.163.026-.246.03h-.044l-.335-.045a.949.949,0,0,1-.429-.226,1.053,1.053,0,0,1-.336-.367c-.007-.009-.013-.018-.02-.027a1.449,1.449,0,0,1-.153-.358.92.92,0,0,1-.02-.125.93.93,0,0,1-.069-.3.955.955,0,0,1,.022-.5l.036-.1.016-.046a.947.947,0,0,1,.226-.429.688.688,0,0,1,.111-.141,3.373,3.373,0,0,1,.377-.3,1.216,1.216,0,0,1,.156-.1c.029-.015.058-.028.088-.041l.151-.063a3.661,3.661,0,0,1,.454-.18c.052-.015.107-.023.161-.034l.149-.06a1.274,1.274,0,0,1,.671,0l.3.127a1.41,1.41,0,0,1,.579.753,1.672,1.672,0,0,1,.083.5A.6.6,0,0,1,669.59,431.217Z" transform="translate(-74.302 -50.347)" fill="#fff"/>
    </g>
  </g>
</svg>
